<svg width="256" height="193" viewBox="0 0 256 193" fill="none" xmlns="http://www.w3.org/2000/svg">
<g clip-path="url(#clip0_73_123)">
<path d="M47.0132 116.297C47.7007 115.609 48.5078 115.083 49.4473 114.72C50.3825 114.352 51.4117 114.173 52.5306 114.173C53.7178 114.173 54.8153 114.408 55.8231 114.878C56.8266 115.348 57.7405 116.049 58.5647 116.989L62.1305 113.694C60.986 112.301 59.5768 111.241 57.8985 110.518C56.2202 109.796 54.337 109.437 52.2573 109.437C50.3825 109.437 48.6573 109.741 47.0815 110.348C45.5057 110.954 44.1263 111.818 42.952 112.938C41.7733 114.057 40.8595 115.374 40.2104 116.882C39.557 118.391 39.2324 120.049 39.2324 121.857C39.2324 123.665 39.557 125.323 40.2104 126.832C40.8637 128.341 41.7691 129.657 42.9349 130.777C44.1007 131.896 45.4758 132.76 47.0644 133.367C48.653 133.974 50.374 134.277 52.2231 134.277C54.3242 134.277 56.216 133.909 57.8985 133.179C59.5768 132.448 60.9903 131.384 62.1305 129.99L58.5647 126.695C57.7405 127.657 56.8266 128.37 55.8231 128.841C54.8153 129.311 53.722 129.546 52.5306 129.546C51.4117 129.546 50.3825 129.362 49.4473 128.999C48.5121 128.635 47.7007 128.106 47.0132 127.422C46.3256 126.734 45.7961 125.922 45.4203 124.986C45.0445 124.05 44.8566 123.007 44.8566 121.861C44.8566 120.716 45.0445 119.677 45.4203 118.741C45.7961 117.805 46.3299 116.993 47.0132 116.305V116.297Z" fill="#070707"/>
<path d="M86.3481 112.967C85.1695 111.848 83.7901 110.976 82.2015 110.36C80.6129 109.745 78.8706 109.433 76.9745 109.433C75.0784 109.433 73.3617 109.74 71.7646 110.36C70.1632 110.98 68.771 111.848 67.5838 112.967C66.3966 114.087 65.4742 115.403 64.8251 116.912C64.1717 118.421 63.8472 120.07 63.8472 121.853C63.8472 123.635 64.1717 125.285 64.8251 126.793C65.4785 128.302 66.3924 129.618 67.5667 130.738C68.7454 131.858 70.1375 132.73 71.7475 133.345C73.3574 133.965 75.1126 134.273 77.0087 134.273C78.9047 134.273 80.6129 133.965 82.2015 133.345C83.7901 132.725 85.1737 131.866 86.3481 130.755C87.5268 129.648 88.4449 128.332 89.1068 126.81C89.7687 125.289 90.1018 123.635 90.1018 121.853C90.1018 120.07 89.7687 118.395 89.1068 116.895C88.4449 115.399 87.5225 114.087 86.3481 112.967ZM83.914 124.977C83.5382 125.913 83.0044 126.725 82.3211 127.413C81.6336 128.097 80.8392 128.627 79.9382 128.99C79.0371 129.358 78.0464 129.537 76.9745 129.537C75.9026 129.537 74.9076 129.353 73.9937 128.99C73.0799 128.627 72.2856 128.097 71.6108 127.413C70.9361 126.725 70.4108 125.909 70.035 124.96C69.6592 124.011 69.4713 122.977 69.4713 121.853C69.4713 120.729 69.6592 119.669 70.035 118.733C70.4108 117.797 70.9446 116.985 71.6279 116.297C72.3154 115.609 73.1055 115.083 74.0108 114.72C74.9119 114.352 75.9026 114.173 76.9745 114.173C78.0464 114.173 79.0414 114.356 79.9553 114.72C80.8691 115.087 81.6634 115.613 82.3382 116.297C83.0129 116.98 83.5382 117.797 83.914 118.733C84.2898 119.669 84.4777 120.712 84.4777 121.853C84.4777 122.994 84.2898 124.037 83.914 124.977Z" fill="#070707"/>
<path d="M116.707 109.843L107.867 124.759L98.8776 109.843H94.2869V133.862H99.4968V119.758L106.522 131.324H109.024L116.092 119.446L116.122 133.862H121.332L121.263 109.843H116.707Z" fill="#070707"/>
<path d="M146.561 113.895C145.716 112.591 144.516 111.591 142.961 110.894C141.407 110.198 139.558 109.847 137.41 109.847H127.024V133.862H132.576V127.242H137.41C139.558 127.242 141.407 126.892 142.961 126.195C144.516 125.498 145.716 124.498 146.561 123.195C147.407 121.891 147.83 120.348 147.83 118.562C147.83 116.775 147.407 115.198 146.561 113.895ZM140.942 121.613C140.096 122.344 138.815 122.712 137.102 122.712H132.576V114.373H137.102C138.815 114.373 140.096 114.741 140.942 115.472C141.787 116.203 142.21 117.233 142.21 118.557C142.21 119.882 141.787 120.878 140.942 121.609V121.613Z" fill="#070707"/>
<path d="M158.117 109.843L147.42 133.858H153.112L155.252 128.712H166.376L168.507 133.858H174.336L163.605 109.843H158.121H158.117ZM157.003 124.494L160.82 115.301L164.625 124.494H157.003Z" fill="#070707"/>
<path d="M192.123 121.716C191.299 121.212 190.393 120.814 189.398 120.515C188.403 120.22 187.408 119.955 186.417 119.724C185.422 119.498 184.513 119.267 183.693 119.036C182.869 118.81 182.207 118.506 181.703 118.126C181.199 117.75 180.947 117.25 180.947 116.634C180.947 116.109 181.096 115.647 181.391 115.245C181.686 114.844 182.181 114.519 182.864 114.267C183.552 114.014 184.427 113.89 185.504 113.89C186.58 113.89 187.673 114.044 188.796 114.352C189.915 114.66 191.034 115.134 192.157 115.775L193.869 111.557C192.75 110.847 191.457 110.317 189.996 109.963C188.531 109.608 187.049 109.433 185.538 109.433C183.274 109.433 181.395 109.77 179.896 110.446C178.398 111.121 177.279 112.023 176.536 113.155C175.793 114.288 175.421 115.54 175.421 116.912C175.421 118.194 175.677 119.246 176.194 120.07C176.706 120.895 177.377 121.558 178.201 122.062C179.025 122.566 179.931 122.977 180.926 123.297C181.921 123.618 182.916 123.887 183.906 124.105C184.897 124.323 185.811 124.55 186.631 124.789C187.455 125.028 188.117 125.336 188.621 125.716C189.125 126.092 189.377 126.601 189.377 127.242C189.377 127.746 189.215 128.191 188.899 128.58C188.578 128.969 188.083 129.272 187.408 129.49C186.733 129.708 185.849 129.815 184.752 129.815C183.313 129.815 181.891 129.58 180.486 129.11C179.081 128.64 177.864 128.041 176.835 127.31L174.947 131.495C176.019 132.319 177.437 132.986 179.196 133.503C180.956 134.016 182.796 134.277 184.714 134.277C186.998 134.277 188.89 133.935 190.389 133.247C191.884 132.563 193.011 131.657 193.767 130.537C194.523 129.417 194.899 128.182 194.899 126.832C194.899 125.575 194.642 124.532 194.126 123.708C193.613 122.883 192.943 122.22 192.118 121.716H192.123Z" fill="#070707"/>
<path d="M215.999 123.703C215.486 122.878 214.816 122.216 213.992 121.712C213.167 121.207 212.262 120.81 211.267 120.511C210.272 120.216 209.277 119.951 208.286 119.72C207.291 119.493 206.382 119.263 205.562 119.032C204.738 118.805 204.076 118.502 203.572 118.122C203.068 117.745 202.816 117.245 202.816 116.63C202.816 116.104 202.965 115.643 203.26 115.241C203.559 114.839 204.05 114.514 204.733 114.262C205.421 114.01 206.301 113.886 207.372 113.886C208.444 113.886 209.542 114.04 210.665 114.348C211.784 114.655 212.903 115.13 214.026 115.771L215.738 111.553C214.619 110.843 213.325 110.313 211.865 109.958C210.404 109.604 208.918 109.428 207.407 109.428C205.143 109.428 203.264 109.766 201.77 110.441C200.271 111.117 199.152 112.018 198.409 113.151C197.666 114.284 197.294 115.536 197.294 116.908C197.294 118.19 197.55 119.241 198.067 120.066C198.58 120.891 199.25 121.553 200.074 122.058C200.898 122.562 201.804 122.972 202.799 123.293C203.794 123.614 204.789 123.883 205.78 124.101C206.775 124.319 207.684 124.545 208.504 124.785C209.328 125.024 209.99 125.332 210.494 125.712C210.998 126.088 211.25 126.597 211.25 127.238C211.25 127.742 211.088 128.187 210.772 128.575C210.451 128.964 209.956 129.268 209.281 129.486C208.607 129.704 207.723 129.811 206.625 129.811C205.186 129.811 203.764 129.576 202.359 129.105C200.954 128.635 199.737 128.037 198.708 127.306L196.824 131.49C197.901 132.315 199.314 132.982 201.074 133.499C202.833 134.012 204.674 134.273 206.591 134.273C208.876 134.273 210.767 133.931 212.266 133.243C213.761 132.559 214.888 131.653 215.644 130.533C216.4 129.413 216.776 128.178 216.776 126.827C216.776 125.571 216.52 124.528 216.003 123.703H215.999Z" fill="#070707"/>
<path d="M73.4514 142.06C72.6998 141.722 71.8073 141.555 70.7696 141.555H65.7561V153.15H68.4379V149.953H70.7696C71.8073 149.953 72.6998 149.787 73.4514 149.449C74.203 149.111 74.7795 148.629 75.1895 148C75.5995 147.372 75.8002 146.624 75.8002 145.765C75.8002 144.906 75.5952 144.141 75.1895 143.513C74.7795 142.884 74.203 142.401 73.4514 142.064V142.06ZM72.4735 147.235C72.0635 147.59 71.4486 147.765 70.6201 147.765H68.4337V143.739H70.6201C71.4486 143.739 72.0635 143.914 72.4735 144.269C72.8835 144.624 73.0842 145.12 73.0842 145.761C73.0842 146.402 72.8792 146.88 72.4735 147.235Z" fill="#070707"/>
<path d="M85.4002 149.423C86.1518 149.094 86.7283 148.616 87.1382 147.992C87.5482 147.368 87.7489 146.624 87.7489 145.765C87.7489 144.906 87.5439 144.141 87.1382 143.513C86.7283 142.884 86.1518 142.401 85.4002 142.064C84.6486 141.726 83.756 141.56 82.7183 141.56H77.7048V153.155H80.3867V149.924H82.7183C82.761 149.924 82.7995 149.919 82.8422 149.919L85.0671 153.155H87.9624L85.3745 149.436C85.3745 149.436 85.3916 149.432 85.4002 149.428V149.423ZM84.4222 144.273C84.8322 144.628 85.0329 145.124 85.0329 145.765C85.0329 146.406 84.8279 146.889 84.4222 147.248C84.0123 147.607 83.3973 147.787 82.5689 147.787H80.3824V143.748H82.5689C83.3973 143.748 84.0123 143.923 84.4222 144.278V144.273Z" fill="#070707"/>
<path d="M92.5317 148.312H97.9082V146.227H92.5317V143.709H98.6213V141.555H89.8669V153.15H98.8349V150.996H92.5317V148.312Z" fill="#070707"/>
<path d="M108.666 142.06C107.914 141.722 107.021 141.555 105.984 141.555H100.97V153.15H103.652V149.953H105.984C107.021 149.953 107.914 149.787 108.666 149.449C109.417 149.111 109.994 148.629 110.404 148C110.814 147.372 111.014 146.624 111.014 145.765C111.014 144.906 110.809 144.141 110.404 143.513C109.994 142.884 109.417 142.401 108.666 142.064V142.06ZM107.688 147.235C107.278 147.59 106.663 147.765 105.834 147.765H103.648V143.739H105.834C106.663 143.739 107.278 143.914 107.688 144.269C108.098 144.624 108.298 145.12 108.298 145.761C108.298 146.402 108.093 146.88 107.688 147.235Z" fill="#070707"/>
<path d="M125.145 147.287C124.748 147.043 124.308 146.851 123.83 146.705C123.352 146.56 122.869 146.436 122.391 146.325C121.912 146.214 121.473 146.103 121.075 145.996C120.678 145.885 120.358 145.739 120.115 145.556C119.871 145.372 119.752 145.132 119.752 144.833C119.752 144.581 119.824 144.355 119.965 144.162C120.11 143.97 120.345 143.812 120.678 143.692C121.011 143.573 121.434 143.508 121.951 143.508C122.468 143.508 122.997 143.581 123.539 143.731C124.082 143.88 124.62 144.107 125.162 144.419L125.991 142.38C125.448 142.038 124.825 141.782 124.12 141.611C123.416 141.44 122.698 141.354 121.968 141.354C120.875 141.354 119.969 141.517 119.248 141.842C118.526 142.166 117.984 142.602 117.625 143.149C117.266 143.696 117.087 144.299 117.087 144.962C117.087 145.581 117.211 146.086 117.458 146.487C117.706 146.885 118.031 147.205 118.428 147.449C118.825 147.693 119.265 147.889 119.743 148.047C120.221 148.201 120.704 148.334 121.182 148.436C121.66 148.543 122.1 148.65 122.497 148.765C122.895 148.881 123.215 149.03 123.458 149.214C123.702 149.398 123.821 149.641 123.821 149.949C123.821 150.193 123.744 150.406 123.591 150.595C123.437 150.783 123.198 150.928 122.869 151.035C122.544 151.142 122.117 151.193 121.588 151.193C120.892 151.193 120.204 151.077 119.529 150.851C118.85 150.624 118.265 150.334 117.766 149.983L116.856 152.005C117.373 152.402 118.06 152.723 118.906 152.975C119.756 153.223 120.644 153.347 121.571 153.347C122.673 153.347 123.586 153.18 124.308 152.851C125.03 152.522 125.572 152.082 125.939 151.543C126.302 151.001 126.486 150.406 126.486 149.753C126.486 149.146 126.362 148.641 126.115 148.244C125.867 147.846 125.542 147.526 125.145 147.282V147.287Z" fill="#070707"/>
<path d="M131.35 144.671C131.683 144.342 132.072 144.085 132.525 143.91C132.977 143.735 133.473 143.645 134.015 143.645C134.587 143.645 135.117 143.756 135.604 143.983C136.09 144.209 136.53 144.547 136.927 145L138.648 143.41C138.097 142.739 137.414 142.226 136.603 141.88C135.791 141.534 134.886 141.359 133.883 141.359C132.977 141.359 132.144 141.504 131.384 141.799C130.624 142.094 129.958 142.508 129.39 143.051C128.822 143.594 128.382 144.226 128.066 144.957C127.75 145.684 127.596 146.487 127.596 147.359C127.596 148.231 127.754 149.03 128.066 149.761C128.382 150.492 128.818 151.124 129.381 151.667C129.945 152.21 130.607 152.625 131.376 152.919C132.144 153.21 132.973 153.36 133.865 153.36C134.882 153.36 135.791 153.184 136.603 152.83C137.414 152.475 138.093 151.962 138.648 151.291L136.927 149.701C136.53 150.163 136.09 150.509 135.604 150.736C135.117 150.962 134.587 151.073 134.015 151.073C133.473 151.073 132.977 150.983 132.525 150.808C132.072 150.633 131.679 150.377 131.35 150.047C131.021 149.714 130.761 149.325 130.581 148.872C130.398 148.419 130.308 147.919 130.308 147.363C130.308 146.808 130.398 146.308 130.581 145.855C130.765 145.402 131.021 145.009 131.35 144.679V144.671Z" fill="#070707"/>
<path d="M148.393 146.128H143.132V141.555H140.455V153.15H143.132V148.393H148.393V153.15H151.075V141.555H148.393V146.128Z" fill="#070707"/>
<path d="M163.959 143.064C163.391 142.521 162.725 142.102 161.956 141.807C161.188 141.508 160.346 141.359 159.433 141.359C158.519 141.359 157.69 141.508 156.917 141.807C156.144 142.107 155.474 142.525 154.897 143.064C154.325 143.607 153.881 144.239 153.565 144.97C153.249 145.697 153.095 146.496 153.095 147.355C153.095 148.214 153.253 149.009 153.565 149.74C153.881 150.466 154.321 151.103 154.889 151.646C155.457 152.189 156.131 152.608 156.909 152.902C157.686 153.202 158.531 153.351 159.45 153.351C160.368 153.351 161.188 153.202 161.956 152.902C162.725 152.603 163.391 152.189 163.959 151.65C164.527 151.116 164.971 150.479 165.292 149.744C165.612 149.009 165.77 148.214 165.77 147.351C165.77 146.487 165.612 145.68 165.292 144.957C164.971 144.235 164.527 143.602 163.959 143.06V143.064ZM162.785 148.859C162.601 149.312 162.345 149.706 162.016 150.035C161.683 150.364 161.303 150.62 160.867 150.795C160.432 150.971 159.954 151.06 159.437 151.06C158.92 151.06 158.438 150.971 157.998 150.795C157.558 150.62 157.173 150.364 156.849 150.035C156.524 149.701 156.268 149.308 156.089 148.851C155.909 148.393 155.815 147.893 155.815 147.351C155.815 146.808 155.905 146.295 156.089 145.842C156.272 145.389 156.529 144.996 156.857 144.667C157.191 144.338 157.571 144.081 158.006 143.906C158.442 143.731 158.92 143.641 159.437 143.641C159.954 143.641 160.436 143.731 160.876 143.906C161.316 144.081 161.7 144.338 162.025 144.667C162.349 144.996 162.605 145.389 162.785 145.842C162.964 146.295 163.058 146.795 163.058 147.351C163.058 147.906 162.968 148.406 162.785 148.859Z" fill="#070707"/>
<path d="M177.924 143.064C177.356 142.521 176.689 142.102 175.921 141.807C175.152 141.508 174.311 141.359 173.397 141.359C172.483 141.359 171.655 141.508 170.882 141.807C170.109 142.107 169.438 142.525 168.862 143.064C168.289 143.607 167.845 144.239 167.529 144.97C167.213 145.697 167.06 146.496 167.06 147.355C167.06 148.214 167.218 149.009 167.529 149.74C167.845 150.466 168.285 151.103 168.853 151.646C169.421 152.189 170.096 152.608 170.873 152.902C171.65 153.202 172.496 153.351 173.414 153.351C174.332 153.351 175.152 153.202 175.921 152.902C176.689 152.603 177.356 152.189 177.924 151.65C178.492 151.116 178.936 150.479 179.256 149.744C179.576 149.009 179.734 148.214 179.734 147.351C179.734 146.487 179.576 145.68 179.256 144.957C178.936 144.235 178.492 143.602 177.924 143.06V143.064ZM176.749 148.859C176.566 149.312 176.309 149.706 175.981 150.035C175.647 150.364 175.267 150.62 174.832 150.795C174.396 150.971 173.918 151.06 173.401 151.06C172.884 151.06 172.402 150.971 171.962 150.795C171.522 150.62 171.138 150.364 170.813 150.035C170.489 149.701 170.232 149.308 170.053 148.851C169.874 148.393 169.78 147.893 169.78 147.351C169.78 146.808 169.87 146.295 170.053 145.842C170.237 145.389 170.493 144.996 170.822 144.667C171.155 144.338 171.535 144.081 171.971 143.906C172.406 143.731 172.884 143.641 173.401 143.641C173.918 143.641 174.4 143.731 174.84 143.906C175.28 144.081 175.664 144.338 175.989 144.667C176.314 144.996 176.57 145.389 176.749 145.842C176.929 146.295 177.022 146.795 177.022 147.351C177.022 147.906 176.933 148.406 176.749 148.859Z" fill="#070707"/>
<path d="M184.436 150.962V141.555H181.754V153.15H190.244V150.962H184.436Z" fill="#070707"/>
<path d="M129.104 69.6643L154.607 54.5689L129.104 39.6531L101.039 55.9408V78.6694L107.893 74.5835L107.987 59.2317L109.814 58.4111L129.104 69.6643Z" fill="#FF006A"/>
<path d="M129.108 71.5533L103.601 86.6487L129.108 101.56L154.961 86.5589L129.108 71.5533Z" fill="#FE9900"/>
</g>
<defs>
<clipPath id="clip0_73_123">
<rect width="256" height="193" fill="white"/>
</clipPath>
</defs>
</svg>
